<?xml version="1.0" encoding="UTF-8"?>
<svg id="Objects" xmlns="http://www.w3.org/2000/svg" viewBox="0 0 971 627">
  <defs>
    <style>
      .cls-1 {
        fill: #e2e8f0;
      }

      .cls-2 {
        fill: #fff;
      }
    </style>
  </defs>
  <path class="cls-1" d="M882.57,181.32v177.68c0,92.68-75.14,167.82-167.82,167.82h-237.9l-80.99,78.86c-14.79,14.41-39.59,8-45.56-11.77l-20.23-67.09h-73.84c-92.68,0-167.82-75.14-167.82-167.82v-177.68c0-92.68,75.14-167.82,167.82-167.82h458.51c92.68,0,167.82,75.14,167.82,167.82Z"/>
  <rect class="cls-2" x="148.69" y="181.32" width="673.62" height="262.41" rx="113.55" ry="113.55"/>
  <circle class="cls-1" cx="288.61" cy="312.52" r="48.26"/>
  <path class="cls-1" d="M521.5,336.65c7.1,0,12.32,6.8,10.32,13.61-5.87,20.03-24.39,34.66-46.32,34.66s-40.44-14.63-46.32-34.66c-2-6.81,3.22-13.61,10.32-13.61h72Z"/>
  <circle class="cls-2" cx="275.73" cy="300.72" r="15.62"/>
  <circle class="cls-2" cx="300.49" cy="325.97" r="5.37"/>
  <circle class="cls-1" cx="682.39" cy="312.52" r="48.26"/>
  <circle class="cls-2" cx="669.52" cy="300.72" r="15.62"/>
  <circle class="cls-2" cx="694.28" cy="325.97" r="5.37"/>
  <path class="cls-1" d="M255.3,368.85c-2.8,0-5.52-1.47-7.01-4.09-2.19-3.87-.81-8.79,3.06-10.98.61-.35,15.27-8.5,37.26-8.5s36.65,8.15,37.26,8.5c3.87,2.19,5.23,7.1,3.04,10.97-2.18,3.86-7.07,5.22-10.93,3.06-.24-.13-11.93-6.43-29.37-6.43s-29.25,6.37-29.37,6.43c-1.25.71-2.61,1.04-3.94,1.04Z"/>
  <path class="cls-1" d="M649.08,368.85c-2.8,0-5.52-1.47-7.01-4.09-2.19-3.87-.81-8.79,3.06-10.98.61-.35,15.27-8.5,37.26-8.5s36.65,8.15,37.26,8.5c3.87,2.19,5.23,7.1,3.04,10.97-2.18,3.86-7.07,5.22-10.93,3.06-.24-.13-11.93-6.43-29.37-6.43s-29.25,6.37-29.37,6.43c-1.25.71-2.61,1.04-3.94,1.04Z"/>
  <path class="cls-1" d="M39.61,100.3h0c14.37,0,26.03,11.66,26.03,26.03v182.2h0c-28.73,0-52.06-23.33-52.06-52.06V126.33c0-14.37,11.66-26.03,26.03-26.03Z"/>
  <path class="cls-1" d="M957.42,100.3h0v182.2c0,14.37-11.66,26.03-26.03,26.03h0c-14.37,0-26.03-11.66-26.03-26.03v-130.14c0-28.73,23.33-52.06,52.06-52.06Z" transform="translate(1862.78 408.84) rotate(180)"/>
</svg>