<?xml version="1.0" encoding="UTF-8"?>
<svg id="Layer_1" data-name="Layer 1" xmlns="http://www.w3.org/2000/svg" viewBox="0 0 640 640">
  <defs>
    <style>
      .cls-1 {
        fill: #131818;
      }

      .cls-2 {
        fill: #fff;
      }

      .cls-3 {
        fill: #8ac49a;
      }

      .cls-4 {
        fill: #d0e8e4;
      }

      .cls-5 {
        fill: #54748f;
      }

      .cls-6 {
        fill: #142647;
      }

      .cls-7 {
        fill: #5ec269;
      }

      .cls-8 {
        fill: #040e1c;
      }
    </style>
  </defs>
  <path class="cls-8" d="M299.09,23.63c52.18-3.73,105.32,6.61,152.17,29.9,49.56,24.46,92.01,63.03,121.16,109.97,16.57,26.62,28.9,55.88,36.29,86.36,10.92,44.87,11.19,92.27.73,137.24-13.99,61.01-48.14,117.05-95.57,157.83-24.4,21.1-52.28,38.19-82.16,50.37-63.65,26.11-136.43,28.9-201.9,7.81-57.49-18.25-108.93-54.67-145.58-102.55-22.88-29.77-40.07-63.92-50.24-100.07-15.2-53.76-14.76-111.8,1.27-165.32,13.89-46.68,39.59-89.75,73.93-124.26,31.03-31.38,69.14-55.74,110.69-70.62,25.47-9.17,52.21-14.76,79.2-16.65ZM276.3,50.27c-36.14,5.8-71.04,19.05-101.95,38.63-40.55,25.59-74.17,62.01-96.43,104.49-15.63,29.73-25.66,62.38-29.4,95.75-6.21,55.13,4.38,112.4,31.48,160.94,31.33,58.46,85,104.47,147.41,126.88,39.93,14.49,83.28,19.25,125.43,14.18,32.88-3.92,65-13.97,94.27-29.44,47.46-25.04,87.49-64.29,112.87-111.62,5.62-9.48,10.01-19.64,14.16-29.83,15.64-39.31,21.72-82.31,17.98-124.44-3.1-35.91-13.52-71.15-30.38-103-25.57-48.57-66.09-89.09-114.67-114.65-51.89-27.56-112.84-37.35-170.8-27.89Z"/>
  <g>
    <path class="cls-7" d="M276.3,50.27c57.95-9.46,118.91.33,170.8,27.89,48.57,25.56,89.1,66.08,114.67,114.65,16.85,31.85,27.27,67.1,30.38,103,3.73,42.13-2.35,85.13-17.98,124.44-4.15,10.2-8.54,20.36-14.16,29.83,1.05-5.1,2.84-10.02,5.5-14.52,15.03-31.96,23.26-67.03,24.82-102.28.97-13.41-.2-26.84-1.41-40.18-3.41-30.18-11.83-59.79-24.97-87.18-23.45-48.78-61.8-90.28-108.67-117.36-19.31-11.01-39.8-20.04-61.23-26.01-23.74-6.93-48.47-9.93-73.14-10.63-32.09.52-64.26,5.68-94.37,17-21.67,8.08-42.36,18.86-61.32,32.1-33.84,23.72-62.15,55.24-82.16,91.39-22.53,40.67-34.01,87.25-33.67,133.72,1.02,39.83,9.93,79.78,28.11,115.36,1.21,2.75,1.73,5.71,2.53,8.59-27.1-48.54-37.69-105.8-31.48-160.94,3.73-33.37,13.77-66.02,29.4-95.75,22.25-42.47,55.88-78.9,96.43-104.49,30.91-19.58,65.81-32.84,101.95-38.63Z"/>
    <path class="cls-7" d="M99.41,246.89c1.86-5,2.94-10.49,6.46-14.67l.07.4c-10.11,25.19-15.99,52.09-16.88,79.23-1.26,36.87,6.44,74.01,22.36,107.3,6.65,14.11,14.92,27.39,24.14,39.95,39.51,53.16,103.07,87.46,169.17,91.43,3.7.23,7.39.55,11.09.71,3.08.1,6.17.07,9.25-.05,2.68-.12,5.35-.29,8.04-.47,32.89-1.88,65.37-10.86,94.52-26.24,29.09-15.33,54.94-36.87,74.99-62.96,6.72-9.1,13.18-18.42,18.68-28.32,16.91-29.98,27-63.77,29.23-98.11,2.48-34.79-3.47-70.01-16.4-102.37l-.04-.43c3.48,3.91,4.51,9.17,6.27,13.95,8.44,24.22,12.3,49.85,12.75,75.45-.7,20.64-2.5,41.4-8.15,61.35-15.11,57.08-53.02,107.73-103.52,138.32-27.67,17.16-59.12,28-91.36,32.31-63.83,8.74-130.87-11.06-179.91-52.8-24.41-20.21-44.07-45.84-58.52-73.98-12.24-24.84-20.44-51.77-23.14-79.38-.78-8.29-1.17-16.62-1.59-24.94.3-25.66,4.14-51.38,12.5-75.7Z"/>
  </g>
  <path class="cls-7" d="M226.51,68.92c30.11-11.32,62.28-16.48,94.37-17,24.68.7,49.4,3.71,73.14,10.63,21.43,5.97,41.92,15,61.23,26.01,46.87,27.08,85.22,68.58,108.67,117.36,13.14,27.39,21.56,57,24.97,87.18,1.21,13.34,2.38,26.78,1.41,40.18-1.56,35.25-9.79,70.32-24.82,102.28-2.67,4.5-4.45,9.41-5.5,14.52-25.38,47.33-65.41,86.58-112.87,111.62-29.27,15.47-61.39,25.52-94.27,29.44-42.15,5.07-85.5.31-125.43-14.18-62.41-22.41-116.08-68.42-147.41-126.88-.8-2.88-1.32-5.84-2.53-8.59-18.18-35.59-27.09-75.53-28.11-115.36-.34-46.47,11.15-93.05,33.67-133.72,20.01-36.15,48.32-67.68,82.16-91.39,18.96-13.24,39.65-24.02,61.32-32.1ZM280,92.4c-57.03,9.82-109.74,42.13-144.4,88.46-12.14,15.85-21.62,33.55-29.66,51.76l-.07-.4c-3.52,4.18-4.6,9.66-6.46,14.67-8.36,24.31-12.2,50.03-12.5,75.7.42,8.31.81,16.64,1.59,24.94,2.7,27.6,10.9,54.54,23.14,79.38,14.45,28.14,34.11,53.77,58.52,73.98,49.04,41.74,116.08,61.53,179.91,52.8,32.23-4.31,63.69-15.16,91.36-32.31,50.5-30.59,88.41-81.24,103.52-138.32,5.65-19.95,7.45-40.71,8.15-61.35-.44-25.59-4.31-51.23-12.75-75.45-1.76-4.78-2.78-10.04-6.27-13.95l.04.43c-8.5-19.22-18.61-37.84-31.66-54.4-18.92-24.41-42.78-44.96-69.74-60.02-45.91-25.88-100.84-35.15-152.71-25.9Z"/>
  <path class="cls-3" d="M248.09,195.19c5.57-17.18,15.46-33.04,28.89-45.18,12.38,13.83,28.22,26.05,47.1,28.68,11.06,1.3,22.16,2.92,32.75,6.52,12.68,4.2,25.01,11.25,32.85,22.33.16.49.48,1.46.64,1.95-5.24-2.61-9.82-6.38-15.2-8.72-22.07-10.24-46.95-11.42-69.53-20.14-6.93-2.65-13.51-6.29-19.13-11.17-4.04-3.54-7-8.09-9.97-12.52-7.91,6.73-13.24,15.77-18.25,24.72-3.09,5.67-5.58,11.71-9.49,16.91-.27-1.12-.49-2.25-.67-3.38Z"/>
  <path class="cls-3" d="M229.03,221.02c3.05-3.74,8.46-.93,10.94,2.06,2.1,2.76,1.06,6.51,1.1,9.7-.92,10.57.72,21.1,2.24,31.51-9.92-5.02-14.44-16.14-16.37-26.49-.86-5.55-1.52-12.04,2.09-16.78Z"/>
  <path class="cls-3" d="M399.71,221.79c2.41-2.01,6.38-3.84,9.09-1.35,3.38,3.23,3.61,8.34,3.31,12.71-.85,8.63-3.24,17.45-8.7,24.36-2.2,2.94-5.37,4.89-8.37,6.91,1.79-10.74,3.02-21.6,2.48-32.5.15-3.38-.84-7.72,2.2-10.13Z"/>
  <path class="cls-3" d="M268.88,319.67c5.37,3.45,10.53,7.26,16.19,10.24,10.81,5.8,22.35,11.49,34.9,11.48,19.23.26,37.28-9.42,50.78-22.6.39.25,1.18.74,1.58.99.92,2.97,1.96,5.9,2.71,8.93-2.81,9.65-10.18,17.02-16.55,24.47-13.62.03-27.37.33-40.79-2.42-19.01-3.57-38.17-12.21-50.07-27.98.29-.98.59-1.96.88-2.94l.37-.16Z"/>
  <g>
    <path class="cls-4" d="M280,92.4c51.87-9.25,106.8.03,152.71,25.9,26.96,15.06,50.82,35.61,69.74,60.02,13.05,16.55,23.17,35.18,31.66,54.4,12.93,32.36,18.88,67.58,16.4,102.37-2.23,34.34-12.32,68.13-29.23,98.11-5.49,9.9-11.96,19.22-18.68,28.32-8.97-23.9-16.29-48.43-26.71-71.77-.76-1.89-2.77-2.64-4.45-3.46-20.09-8.93-39.45-19.57-60.25-26.81-2.01-.82-4.55-1.15-5.64-3.28-5.58-9.25-12.37-17.76-20.08-25.34-4.13-3.97-8.21-8.12-13.15-11.09-.4-.25-1.19-.74-1.58-.99-13.49,13.17-31.55,22.86-50.78,22.6-12.55.02-24.09-5.67-34.9-11.48-5.66-2.98-10.82-6.79-16.19-10.24l-.37.16c-16.21,9.14-28.42,23.84-38.09,39.48-21.54,6.36-41.39,17.13-61.97,25.91-2.34,1.05-5.16,1.93-6.23,4.52-11.09,22.24-16.57,46.71-26.66,69.37-9.22-12.56-17.49-25.84-24.14-39.95-15.91-33.28-23.62-70.43-22.36-107.3.89-27.14,6.77-54.04,16.88-79.23,8.04-18.21,17.51-35.91,29.66-51.76,34.66-46.33,87.38-78.64,144.4-88.46ZM267.21,113.34c-3.58,2.71-7.52,4.91-11.17,7.52-13.18,9.26-23.83,22.53-28.57,38.06-5.58,17.57-3.79,36.54,1,54.07,7.64-.23,14.79,6.75,14.66,14.39.32,5.61.84,11.27,2.35,16.71.41,1.52,2.09,1.96,3.21,2.83-.92-9-.81-18.04-1.28-27.06-.16-4.92-1.63-9.68-2.04-14.57.31-3.49,1.75-6.76,2.73-10.1.18,1.13.4,2.26.67,3.38,3.9-5.2,6.39-11.24,9.49-16.91,5.01-8.95,10.34-17.99,18.25-24.72,2.97,4.43,5.92,8.98,9.97,12.52,5.62,4.87,12.21,8.52,19.13,11.17,22.58,8.72,47.45,9.9,69.53,20.14,5.38,2.34,9.96,6.11,15.2,8.72-.16-.49-.48-1.46-.64-1.95,1.33,1.93,2.86,3.77,3.76,5.96-1.08,11.13-.75,22.34-1.77,33.47,1.92-.71,3.45-2.49,3.62-4.57,1.01-6.65.76-13.41.52-20.1,1.17-4.99,6.17-9.04,11.3-9.26,3.46-.21,5.84,2.6,7.88,4.96,5.61-24.35,5.3-50.9-5.4-73.85-6.1-12.64-15.61-23.45-26.46-32.26-15.49-12.52-35.29-19.32-55.16-19.4-21.8.39-43.13,8.16-60.74,20.86ZM229.03,221.02c-3.61,4.75-2.95,11.24-2.09,16.78,1.94,10.35,6.45,21.47,16.37,26.49-1.52-10.42-3.16-20.94-2.24-31.51-.04-3.19,1-6.94-1.1-9.7-2.48-3-7.89-5.8-10.94-2.06ZM399.71,221.79c-3.04,2.41-2.04,6.75-2.2,10.13.54,10.9-.69,21.76-2.48,32.5,3-2.02,6.18-3.96,8.37-6.91,5.46-6.91,7.85-15.73,8.7-24.36.3-4.37.07-9.49-3.31-12.71-2.71-2.49-6.68-.66-9.09,1.35Z"/>
    <path class="cls-4" d="M267.63,322.77c11.89,15.78,31.06,24.41,50.07,27.98,13.42,2.75,27.18,2.44,40.79,2.42-7.76,8.42-17.49,15.38-28.64,18.39-9.32,2.52-19.42,1.72-28.3-2.04-10.29-4.31-18.97-11.74-26.19-20.14-4.34-5.08-9.11-10.34-10.45-17.12.71-3.22,1.75-6.35,2.72-9.49Z"/>
    <path class="cls-4" d="M304.9,397.26c1.98-2.5,4.32-4.68,6.44-7.05-5.54,9.24-11.31,18.34-17.1,27.42,2.51,3.5,5.2,6.88,7.35,10.62,1.28,2.17-.11,4.68-.58,6.9-4.05,12.61-7.34,25.47-11.68,37.99-10.06-25.06-20.27-50.34-25.15-77.02,6.44,10.94,10.29,23.12,15.87,34.49,8.68-10.81,16.51-22.27,24.85-33.34Z"/>
    <path class="cls-4" d="M329.59,394.56c2.3,2.49,4.82,4.81,6.88,7.52,7.21,9.79,14.06,19.83,21.63,29.35,4.55-9.04,8.8-18.23,12.97-27.46,1.56-3.46,3.88-6.49,5.9-9.67-5.11,29.28-16.66,56.88-27.7,84.32-3.45-14.98-8.37-29.57-13.25-44.14-.46-1.8-1.4-3.8-.51-5.63,1.94-4.58,5.31-8.44,7.03-13.11-.52-1.96-1.78-3.62-2.83-5.32-3.48-5.22-6.88-10.5-10.13-15.86Z"/>
  </g>
  <g>
    <path class="cls-1" d="M267.21,113.34c17.61-12.7,38.95-20.47,60.74-20.86,19.87.08,39.67,6.88,55.16,19.4,10.85,8.81,20.36,19.62,26.46,32.26,10.7,22.95,11.01,49.51,5.4,73.85-2.04-2.36-4.42-5.17-7.88-4.96-5.13.22-10.13,4.28-11.3,9.26.25,6.69.5,13.45-.52,20.1-.17,2.08-1.7,3.86-3.62,4.57,1.02-11.13.69-22.34,1.77-33.47-.9-2.19-2.43-4.03-3.76-5.96-7.84-11.08-20.17-18.13-32.85-22.33-10.59-3.59-21.69-5.22-32.75-6.52-18.87-2.63-34.71-14.85-47.1-28.68-13.43,12.13-23.32,27.99-28.89,45.18-.98,3.34-2.42,6.6-2.73,10.1.42,4.89,1.88,9.65,2.04,14.57.47,9.02.36,18.06,1.28,27.06-1.12-.86-2.8-1.31-3.21-2.83-1.51-5.44-2.03-11.1-2.35-16.71.13-7.65-7.02-14.62-14.66-14.39-4.79-17.53-6.59-36.5-1-54.07,4.74-15.53,15.39-28.79,28.57-38.06,3.65-2.61,7.59-4.81,11.17-7.52Z"/>
    <path class="cls-1" d="M230.42,359.31c9.67-15.64,21.88-30.34,38.09-39.48-.29.98-.59,1.96-.88,2.94-.97,3.15-2.01,6.28-2.72,9.49-5.09,20.87-4.86,42.83-.72,63.85,4.88,26.68,15.09,51.96,25.15,77.02,10.11,25.55,21.36,50.97,26.47,78.11-3.7-.16-7.39-.48-11.09-.71.76.03,2.25.08,3,.11-8.86-12.01-18.51-23.43-27.7-35.19-21.65-27.18-43.4-54.28-64.91-81.56,8.89-7.12,17.93-14.05,26.89-21.07-3.28-3.49-6.65-6.94-10.59-9.71-3.59-2.77-7.68-5.34-9.96-9.4-1.01-3.09.56-6.28,1.18-9.29,2.52-8.38,3.69-17.27,7.77-25.11Z"/>
    <path class="cls-1" d="M372.33,319.78c4.94,2.98,9.01,7.12,13.15,11.09,7.71,7.57,14.5,16.08,20.08,25.34,1.08,2.13,3.63,2.46,5.64,3.28,3.04,9.65,5.6,19.43,8.11,29.24.43,1.95.83,4.21-.49,5.94-2.97,4.16-7.42,6.88-11.4,9.98-3.15,2.41-5.86,5.31-8.61,8.13,8.97,7.04,18,14,26.93,21.1-22.31,28.27-44.84,56.36-67.25,84.54-8.44,10.79-17.26,21.28-25.39,32.3-2.68.18-5.36.36-8.04.47,4.62-25.18,14.84-48.87,24.21-72.57,11.04-27.44,22.59-55.04,27.7-84.32,4.09-21.66,3.84-44.27-1.93-65.61-.75-3.02-1.79-5.96-2.71-8.93Z"/>
  </g>
  <path class="cls-2" d="M358.49,353.17c6.37-7.45,13.74-14.82,16.55-24.47,5.77,21.34,6.02,43.95,1.93,65.61-2.03,3.18-4.34,6.21-5.9,9.67-4.17,9.23-8.42,18.42-12.97,27.46-7.57-9.52-14.42-19.57-21.63-29.35-2.06-2.71-4.58-5.03-6.88-7.52-3.77-5.63-7.44-11.33-10.64-17.29-2.26,4.46-4.8,8.77-7.6,12.93-2.12,2.36-4.46,4.55-6.44,7.05-8.34,11.08-16.17,22.54-24.85,33.34-5.57-11.37-9.42-23.55-15.87-34.49-4.14-21.02-4.37-42.97.72-63.85,1.34,6.78,6.12,12.04,10.45,17.12,7.22,8.4,15.89,15.83,26.19,20.14,8.87,3.76,18.98,4.56,28.3,2.04,11.16-3.01,20.88-9.97,28.64-18.39Z"/>
  <g>
    <path class="cls-6" d="M168.45,385.22c20.58-8.78,40.43-19.56,61.97-25.91-4.08,7.84-5.24,16.73-7.77,25.11-.62,3.01-2.2,6.2-1.18,9.29,2.28,4.05,6.36,6.62,9.96,9.4,3.94,2.76,7.31,6.21,10.59,9.71-8.96,7.01-18,13.95-26.89,21.07,21.51,27.28,43.27,54.38,64.91,81.56,9.19,11.76,18.84,23.18,27.7,35.19-.76-.03-2.25-.08-3-.11-66.1-3.96-129.66-38.27-169.17-91.43,10.09-22.66,15.57-47.12,26.66-69.37,1.08-2.59,3.89-3.47,6.23-4.52Z"/>
    <path class="cls-6" d="M419.3,388.72c-2.51-9.81-5.07-19.58-8.11-29.24,20.8,7.25,40.16,17.89,60.25,26.81,1.68.82,3.7,1.56,4.45,3.46,10.43,23.34,17.74,47.87,26.71,71.77-20.05,26.08-45.91,47.63-74.99,62.96-29.15,15.38-61.63,24.37-94.52,26.24,8.13-11.02,16.95-21.51,25.39-32.3,22.41-28.18,44.94-56.27,67.25-84.54-8.93-7.09-17.96-14.05-26.93-21.1,2.75-2.83,5.46-5.72,8.61-8.13,3.97-3.1,8.43-5.82,11.4-9.98,1.32-1.72.92-3.99.49-5.94Z"/>
  </g>
  <path class="cls-5" d="M311.35,390.21c2.8-4.16,5.34-8.47,7.6-12.93,3.2,5.96,6.87,11.66,10.64,17.29,3.25,5.36,6.65,10.64,10.13,15.86,1.05,1.71,2.31,3.36,2.83,5.32-1.72,4.68-5.09,8.53-7.03,13.11-.89,1.83.04,3.82.51,5.63,4.88,14.57,9.8,29.16,13.25,44.14-9.37,23.7-19.58,47.38-24.21,72.57-3.08.12-6.17.15-9.25.05-5.11-27.14-16.37-52.56-26.47-78.11,4.34-12.52,7.63-25.38,11.68-37.99.47-2.22,1.86-4.73.58-6.9-2.15-3.74-4.84-7.12-7.35-10.62,5.8-9.08,11.57-18.18,17.1-27.42Z"/>
</svg>