<?xml version="1.0" encoding="UTF-8"?>
<svg id="Layer_1" data-name="Layer 1" xmlns="http://www.w3.org/2000/svg" viewBox="0 0 108 108">
  <defs>
    <style>
      .cls-1 {
        fill: #fff;
      }

      .cls-2 {
        fill: #0b70b1;
      }
    </style>
  </defs>
  <circle class="cls-2" cx="54" cy="54" r="53.44"/>
  <path class="cls-1" d="M83.84,33.34c-.9-2.88-2.87-5.21-4.61-7.61-1.2-1.56-.66-3.65-1.44-5.36-1.29-3.14-4.9-4.71-8.13-4.75-2.65.01-5.29.12-7.93-.07-2.52-.25-4.66,1.36-6.61,2.71-2.61,1.72-3.6,4.84-5.62,7.09-3.19,3.65-6.18,7.62-7.78,12.25-1.66,4.47-1.98,9.32-3.63,13.79-2.39,4.75-7.91,5.96-12.5,7.57-3.72,1.86-7.88,2.9-11.24,5.41-.24.17-.36.35-.41.53l-.06.03.04.06c-.06.56.59,1.16,1.03,1.65l.16.26,17.84,25.57.06-.04s0,.03,0,.04c3.06-.77,5.46-2.89,8.17-4.37,4.05-2.51,8.71-3.77,12.77-6.23,2.82-1.7,5.58-3.52,8.54-4.98,5.48-2.81,9.01-8.08,13.75-11.84,2.88-2.67,6.46-4.65,8.72-7.95,1.14-1.8,2.62-3.43,3.36-5.45.49-3.33-.61-6.59-1.28-9.81-.62-2.99-2.34-5.58-3.19-8.5ZM83.58,53.77c-1.42,2.34-3.26,4.39-5.49,5.97-4.46,3.31-8.39,7.26-12.31,11.17-4.26,3.68-9.49,5.93-14.29,8.79-5.96,2.9-12.15,5.49-17.5,9.47l-16.36-23.41c2.61-1.18,5.25-2.29,7.86-3.47,3.25-1.49,6.91-2,9.91-4.01,2.47-1.65,4.84-3.81,5.73-6.73,1.82-5.58,2.16-11.67,5.08-16.86,2.06-3.79,5.31-6.73,7.61-10.35,1.43-2.23,3.32-4.3,5.78-5.37,2.39-.3,4.81.15,7.22-.05,2.25-.18,4.52.09,6.66.85,1.12.78,1.66,2.08,2.28,3.25-1.32-.58-2.56-1.35-3.93-1.77-2.35-.26-4.71.15-7.02.59-.23.61-.22,1.27-.29,1.91,2.25,1.38,4.97.3,7.42.72.96,1.01,1.74,2.19,2.59,3.31-1.03.62-2.1,1.17-3.1,1.84,1.51,2.16,4.4,2.03,6.61,2.96,1,1.28,1.58,2.86,2.76,4.02.65.75,1.55,1.35,1.92,2.31,1.03,3.37,1.68,6.84,2.82,10.18.65,1.87-1.09,3.24-1.94,4.69Z"/>
</svg>