<?xml version="1.0" encoding="UTF-8"?>
<svg id="Layer_1" data-name="Layer 1" xmlns="http://www.w3.org/2000/svg" viewBox="0 0 108 108">
  <defs>
    <style>
      .cls-1 {
        fill: #7a4a97;
      }

      .cls-2 {
        fill: #fff;
      }
    </style>
  </defs>
  <circle class="cls-1" cx="54" cy="54" r="53.44"/>
  <path class="cls-2" d="M68.66,93.03c-2.14-1.33-4.66-1.84-6.8-3.18-6.9-4.16-12.88-9.72-18.3-15.69-1.96-2.02-5.05-2.86-6.25-5.63-.57-2.39.02-4.81.43-7.17-.43-1.84-1.86-3.53-1.53-5.5.83-2.39,2.88-4.04,4.65-5.71-4.02-2.34-7.81-5.07-11.31-8.17-3.64-3.07-7.83-5.41-11.37-8.61-2.85-2.06-1.32-7.65,2.24-7.7,3.91-.14,7.28,2.23,10.55,4.1,3.88,2.42,7.98,4.45,11.72,7.11,2.05,1.44,3.93,3.17,6.19,4.29-1.05-6.85-4.13-13.14-6.76-19.47-1.21-3.07-3.17-6.15-2.61-9.59.71-2.31,3.4-3.41,5.52-2.4,1.69.96,2.83,2.63,3.9,4.21,2.37,3.62,4.66,7.29,6.73,11.09,1.9,3.47,3.21,7.22,4.88,10.8,1.06,2.32,2.81,4.2,4.08,6.39.95,1.62,1.85,3.27,3.01,4.75,3.85,4.74,7.21,9.86,10.81,14.8,1.72,2.3,3.08,4.94,5.25,6.84,2.29,1.77,5.18,2.58,7.35,4.53.07.52.2,1.54.27,2.06l-17.92,19.82c-1.67-.39-3.26-1.05-4.72-1.97ZM84.07,72.32c-2.03-1.08-3.67-2.79-4.93-4.71-4.01-5.95-8.05-11.88-12.53-17.47-1.51-1.73-2.83-3.62-3.91-5.66-1.19-2.25-2.97-4.12-4.15-6.39-1.24-2.39-2.11-4.96-3.23-7.41-2.37-5.35-5.55-10.27-8.68-15.18-1.01-1.66-2.38-3.31-4.47-3.35-.36,2.75,1.12,5.16,2.21,7.55,2.22,4.52,3.89,9.29,5.42,14.1.76,2.53,2.03,5.07,1.62,7.79-.39,1.26-1.48,2.12-2.27,3.11-3.82-1.75-6.74-4.9-10.38-6.96-3.88-2.2-7.63-4.61-11.51-6.82-2.32-1.29-4.83-2.53-7.55-2.42-.08.78-.17,1.56-.24,2.35,3.8,2.85,7.61,5.7,11.39,8.58,3.04,2.28,5.77,5.03,9.12,6.88,1.88,1.12,3.9,2.14,5.34,3.85.15.78.27,1.57.35,2.37-2.03,1.01-4.6,1.18-6.19,2.94-1.05,1.1,0,2.56.14,3.82,1.42-.53,2.86-1.05,4.34-1.33.25,3.49-3.93,4.72-4.5,7.87-.33,1.65,1.2,2.61,2.5,3.08,3.4,1.26,4.63,5.07,7.3,7.27,5.4,4.83,10.65,10.31,17.58,12.77,2.21.77,4.26,1.94,6.21,3.24h0s15.87-17.38,15.87-17.38c-1.7-.56-3.25-1.66-4.84-2.49Z"/>
</svg>