<?xml version="1.0" encoding="UTF-8"?>
<svg id="Layer_1" data-name="Layer 1" xmlns="http://www.w3.org/2000/svg" viewBox="0 0 640 640">
  <defs>
    <style>
      .cls-1 {
        fill: #131818;
      }

      .cls-2 {
        fill: #8ac49a;
      }

      .cls-3 {
        fill: #d0e8e4;
      }

      .cls-4 {
        fill: #142647;
      }

      .cls-5 {
        fill: #5ec269;
      }

      .cls-6 {
        fill: #040e1c;
      }
    </style>
  </defs>
  <path class="cls-6" d="M300.47,23.52c41.63-2.74,83.83,3.3,122.92,17.92,67.55,24.97,125.13,75.5,158.87,139.11,18.22,34.09,29.64,71.79,33.37,110.27,4.3,43.14-1.04,87.21-15.52,128.08-21.3,60.46-62.87,113.47-116.35,148.78-54.51,36.38-121.41,53.78-186.71,48.51-40.34-3.16-80.04-14.59-115.78-33.61-32.66-17.31-62.05-40.78-86.18-68.79-35.99-41.56-60.13-93.29-68.55-147.64-5.06-32.1-4.79-65.01.77-97.04,9.22-53.86,33.93-104.89,70.18-145.76,37.8-42.87,88.17-74.56,143.29-89.75,19.48-5.4,39.52-8.78,59.69-10.08ZM304.38,47.25c-24.22,1.4-48.26,5.98-71.24,13.74-39.85,13.35-76.41,36.18-106.15,65.85-31.74,31.76-55.63,71.35-68.54,114.37-8.85,29.31-12.69,60.13-11.28,90.7,2.35,61.37,26.65,121.47,67.17,167.57,22.79,26.08,50.54,47.83,81.38,63.63,31.44,16.16,66.08,26.08,101.32,28.98,47.02,3.99,95.05-4.38,137.81-24.37,53.81-24.92,99-67.87,126.67-120.31,18.71-35.24,29.51-74.66,31.28-114.51,2.16-44.08-6.57-88.68-25.4-128.6-15.76-33.62-38.45-64-66.27-88.59-46.27-41.34-107.04-66.21-169.07-68.57-9.23-.06-18.46-.17-27.68.11Z"/>
  <path class="cls-5" d="M304.38,47.25c9.22-.28,18.45-.17,27.68-.11,62.03,2.36,122.8,27.23,169.07,68.57,27.82,24.59,50.51,54.97,66.27,88.59,18.83,39.92,27.56,84.52,25.4,128.6-1.77,39.85-12.57,79.27-31.28,114.51-27.67,52.44-72.86,95.39-126.67,120.31-42.76,19.99-90.79,28.36-137.81,24.37-35.24-2.9-69.88-12.82-101.32-28.98-30.84-15.8-58.59-37.55-81.38-63.63-40.52-46.1-64.82-106.2-67.17-167.57-1.41-30.57,2.43-61.39,11.28-90.7,12.91-43.02,36.8-82.61,68.54-114.37,29.74-29.67,66.3-52.5,106.15-65.85,22.98-7.76,47.02-12.34,71.24-13.74ZM221.97,110.81c-35.17,16.36-65.9,41.93-88.73,73.26-16.04,22.14-28.23,47.09-35.5,73.45-12.62,44.39-11.19,92.47,3.53,136.16,9.31,27.19,23.55,52.76,42.1,74.73,2.25,2.83,4.61,5.59,7.45,7.84l-.24.82c27.25,29.52,62.35,51.76,100.75,63.61,9.96,2.76,20.13,4.65,30.21,6.91,7.7,1.78,15.58,2.51,23.44,3.1,65.23,4.56,131.91-20.43,178-66.86,2.7-2.95,6.07-5.42,8.05-8.94,24.94-27.66,43.31-61.35,52.46-97.48,9.67-37.02,9.81-76.44.45-113.54-9.22-37.41-28.13-72.36-54.3-100.63-37.98-41.44-91.61-68.08-147.58-73.25-40.93-3.97-82.91,3.22-120.09,20.82Z"/>
  <path class="cls-2" d="M255.49,213.42c4.8-18.23,13.63-36.17,28.15-48.57,11.13,12.49,25.26,23.79,42.38,25.93,17.23,1.98,35.29,5.74,49,17.05,5.44,4.73,10.59,10.39,12.86,17.37-5.79-5.47-12.18-10.52-19.62-13.52-14.12-5.83-29.52-6.83-44.38-9.64-10.79-2.22-22.07-5.02-30.52-12.52-4.59-3.68-7.22-9.03-10.54-13.75-8.63,7.59-13.4,18.36-18.46,28.43-3.98,7.64-6.58,15.96-11.2,23.27-.07-4.79,1.2-9.44,2.33-14.05Z"/>
  <path class="cls-2" d="M239.36,233.2c.67-2.3,2.74-5.05,5.45-4.33,3.38.9,7.47,3.5,6.81,7.55-1.07,11.2.37,22.39,2.12,33.45-7.93-3.96-11.98-12.55-14.05-20.75-1.12-5.2-1.74-10.73-.33-15.92Z"/>
  <path class="cls-2" d="M390.14,236.78c-1.46-5.7,8.16-11.2,11.35-5.36,2.93,5.34,1.88,11.8.65,17.48-2.05,8.23-5.94,17.07-14.01,20.94,1.43-10.95,3.33-21.99,2.01-33.06Z"/>
  <path class="cls-2" d="M334.03,339.71c12.96-3.41,24.22-11.64,32.75-21.82,1.31,6.9,2.71,13.8,4.69,20.55,5.07,18.48,4.16,38.14-.17,56.67-4.12,17.86-11.27,34.81-18.36,51.65-.52.96-.72,2.2-1.63,2.91-7.61,4.29-14.51,10.61-23.55,11.6-13.28,2.48-26.99-3.51-35.82-13.36,6.81.66,13.63,2.12,20.5,1.34,8.41-.89,16.91-3.21,23.91-8.11,10.87-7.83,18.63-19.48,22.67-32.18,5.7-18.23,6.64-38.17,1.46-56.63-8.49-.74-17.01.34-25.51-.26-14.83-.9-29.86-4.59-42.43-12.76-6.53-4.08-11.41-10.15-17.36-14.97.3-1.86.66-3.71,1.05-5.56,5.3,5.7,11.06,11.08,17.85,14.97,11.88,7,26.54,9.52,39.95,5.96Z"/>
  <g>
    <path class="cls-3" d="M221.97,110.81c37.18-17.6,79.16-24.79,120.09-20.82,55.97,5.17,109.6,31.81,147.58,73.25,26.17,28.27,45.08,63.22,54.3,100.63,9.36,37.1,9.22,76.52-.45,113.54-9.15,36.13-27.52,69.82-52.46,97.48-8.51-28.01-19.42-55.22-30.97-82.1-1.13-2.63-2.63-5.34-5.36-6.56-19.23-9.54-38.98-18.09-59.39-24.8-3.04-5.54-6.93-10.55-10.98-15.38,10.51.5,21.4-.21,31.08-4.72,9.76-4.35,17.39-12.75,21.64-22.47,3.02-6.99,3.28-14.73,3.71-22.23,1.02-28.9-1.04-58.12-8.42-86.17-7.64-29.33-22.01-57.66-44.87-78.03-16.95-15.7-38-28.78-61.63-30.08-14.09-.6-29.43.53-41.14,9.26-4.87,3.36-8.25,8.28-12,12.75-5.17-.02-10.63.19-15.17,2.99-6.91,4.18-12.44,10.24-17.85,16.16-20.86,23.7-32.33,54.21-37.95,84.94-4.51,25.5-5.75,51.61-3.77,77.44.86,13.61,9.06,26.36,20.69,33.34,11.8,7.11,26.05,7.47,39.4,6.58-3.96,4.98-7.39,10.35-10.86,15.68-19.2,5.98-37.65,14.11-55.76,22.8-2.76,1.37-5.97,2.52-7.6,5.34-1.56,2.6-2.6,5.47-3.81,8.25-10.92,25.66-21.17,51.65-29.2,78.37-2.84-2.25-5.2-5.01-7.45-7.84-18.55-21.97-32.79-47.54-42.1-74.73-14.72-43.69-16.15-91.77-3.53-136.16,7.27-26.36,19.46-51.31,35.5-73.45,22.83-31.33,53.56-56.9,88.73-73.26Z"/>
    <path class="cls-3" d="M264.36,204.2c5.06-10.07,9.83-20.84,18.46-28.43,3.32,4.72,5.95,10.07,10.54,13.75,8.45,7.5,19.73,10.3,30.52,12.52,14.86,2.81,30.26,3.81,44.38,9.64,7.44,3,13.83,8.05,19.62,13.52.6.72,1.18,1.47,1.75,2.23,2.7-2.4,5.48-5.48,9.38-5.54,3.38.04,5.95,2.87,7.16,5.8,2.35,5.73,1.68,12.12.67,18.07-1.37,7.98-4.21,16.07-10,21.94-2.4,2.58-5.75,3.87-8.87,5.32-3.89,16.18-10.35,32.07-21.19,44.87-8.53,10.18-19.79,18.41-32.75,21.82-13.41,3.56-28.07,1.04-39.95-5.96-6.79-3.89-12.55-9.27-17.85-14.97-11.18-12.88-18.01-29.03-21.78-45.54-3.24-1.18-6.74-2.1-9.3-4.53-6.25-5.63-9.38-13.86-10.89-21.96-1.2-6.29-2.04-13.09.53-19.16,1.3-3.15,4.36-6.22,8.04-5.62,4.11.61,6.77,4.08,9.52,6.84.2-.33.61-1.01.81-1.34,4.62-7.31,7.22-15.63,11.2-23.27ZM239.36,233.2c-1.41,5.19-.79,10.72.33,15.92,2.07,8.2,6.12,16.79,14.05,20.75-1.75-11.06-3.19-22.25-2.12-33.45.66-4.05-3.43-6.65-6.81-7.55-2.71-.72-4.78,2.03-5.45,4.33ZM390.14,236.78c1.32,11.07-.58,22.11-2.01,33.06,8.07-3.87,11.96-12.71,14.01-20.94,1.23-5.68,2.28-12.14-.65-17.48-3.19-5.84-12.81-.34-11.35,5.36Z"/>
    <path class="cls-3" d="M275.18,324.34c5.95,4.82,10.83,10.89,17.36,14.97,12.57,8.17,27.6,11.86,42.43,12.76,8.5.6,17.02-.48,25.51.26,5.18,18.46,4.24,38.4-1.46,56.63-4.04,12.7-11.8,24.35-22.67,32.18-7,4.9-15.5,7.22-23.91,8.11-6.87.78-13.69-.68-20.5-1.34,8.83,9.85,22.54,15.84,35.82,13.36,9.04-.99,15.94-7.31,23.55-11.6-4.41,11.77-10.12,23.04-14.65,34.78-6.32,15.49-11.6,31.44-15.06,47.82-1.59-4.39-2.2-9.06-3.54-13.52-10.43-38.47-30.98-73.17-42.95-111.1-6.21-20.31-9.7-42.28-4.58-63.23,1.73-6.65,3.16-13.37,4.65-20.08Z"/>
  </g>
  <path class="cls-1" d="M284.7,111.61c11.71-8.73,27.05-9.86,41.14-9.26,23.63,1.3,44.68,14.38,61.63,30.08,22.86,20.37,37.23,48.7,44.87,78.03,7.38,28.05,9.44,57.27,8.42,86.17-.43,7.5-.69,15.24-3.71,22.23-4.25,9.72-11.88,18.12-21.64,22.47-9.68,4.51-20.57,5.22-31.08,4.72,4.05,4.83,7.94,9.84,10.98,15.38,3.83,9.56,7.29,19.44,8.27,29.74.5,3.84-1.85,7.22-4.41,9.82-3.03,3.05-6.45,5.69-9.42,8.81,6.13,7.51,13.32,14.07,19.66,21.4-2.34,4.2-5.61,7.74-8.58,11.48-22.98,29.36-46.01,58.69-68.97,88.07-3.43,4.25-6.51,8.79-10.21,12.82-3.44-3.08-6.01-6.93-8.79-10.57-22.28-28.39-44.52-56.81-66.8-85.2-4.05-5.62-9.03-10.57-12.49-16.6,6.25-7.39,13.52-13.89,19.63-21.41-4.57-5.33-12.14-8.8-13.83-16.1-.07-11.18,4.44-21.72,7.82-32.2,3.47-5.33,6.9-10.7,10.86-15.68-13.35.89-27.6.53-39.4-6.58-11.63-6.98-19.83-19.73-20.69-33.34-1.98-25.83-.74-51.94,3.77-77.44,5.62-30.73,17.09-61.24,37.95-84.94,5.41-5.92,10.94-11.98,17.85-16.16,4.54-2.8,10-3.01,15.17-2.99,3.75-4.47,7.13-9.39,12-12.75ZM255.49,213.42c-1.13,4.61-2.4,9.26-2.33,14.05-.2.33-.61,1.01-.81,1.34-2.75-2.76-5.41-6.23-9.52-6.84-3.68-.6-6.74,2.47-8.04,5.62-2.57,6.07-1.73,12.87-.53,19.16,1.51,8.1,4.64,16.33,10.89,21.96,2.56,2.43,6.06,3.35,9.3,4.53,3.77,16.51,10.6,32.66,21.78,45.54-.39,1.85-.75,3.7-1.05,5.56-1.49,6.71-2.92,13.43-4.65,20.08-5.12,20.95-1.63,42.92,4.58,63.23,11.97,37.93,32.52,72.63,42.95,111.1,1.34,4.46,1.95,9.13,3.54,13.52,3.46-16.38,8.74-32.33,15.06-47.82,4.53-11.74,10.24-23.01,14.65-34.78.91-.71,1.11-1.95,1.63-2.91,7.09-16.84,14.24-33.79,18.36-51.65,4.33-18.53,5.24-38.19.17-56.67-1.98-6.75-3.38-13.65-4.69-20.55,10.84-12.8,17.3-28.69,21.19-44.87,3.12-1.45,6.47-2.74,8.87-5.32,5.79-5.87,8.63-13.96,10-21.94,1.01-5.95,1.68-12.34-.67-18.07-1.21-2.93-3.78-5.76-7.16-5.8-3.9.06-6.68,3.14-9.38,5.54-.57-.76-1.15-1.51-1.75-2.23-2.27-6.98-7.42-12.64-12.86-17.37-13.71-11.31-31.77-15.07-49-17.05-17.12-2.14-31.25-13.44-42.38-25.93-14.52,12.4-23.35,30.34-28.15,48.57Z"/>
  <path class="cls-4" d="M191.43,384.29c18.11-8.69,36.56-16.82,55.76-22.8-3.38,10.48-7.89,21.02-7.82,32.2,1.69,7.3,9.26,10.77,13.83,16.1-6.11,7.52-13.38,14.02-19.63,21.41,3.46,6.03,8.44,10.98,12.49,16.6,22.28,28.39,44.52,56.81,66.8,85.2,2.78,3.64,5.35,7.49,8.79,10.57,3.7-4.03,6.78-8.57,10.21-12.82,22.96-29.38,45.99-58.71,68.97-88.07,2.97-3.74,6.24-7.28,8.58-11.48-6.34-7.33-13.53-13.89-19.66-21.4,2.97-3.12,6.39-5.76,9.42-8.81,2.56-2.6,4.91-5.98,4.41-9.82-.98-10.3-4.44-20.18-8.27-29.74,20.41,6.71,40.16,15.26,59.39,24.8,2.73,1.22,4.23,3.93,5.36,6.56,11.55,26.88,22.46,54.09,30.97,82.1-1.98,3.52-5.35,5.99-8.05,8.94-46.09,46.43-112.77,71.42-178,66.86-7.86-.59-15.74-1.32-23.44-3.1-10.08-2.26-20.25-4.15-30.21-6.91-38.4-11.85-73.5-34.09-100.75-63.61l.24-.82c8.03-26.72,18.28-52.71,29.2-78.37,1.21-2.78,2.25-5.65,3.81-8.25,1.63-2.82,4.84-3.97,7.6-5.34Z"/>
</svg>