<?xml version="1.0" encoding="UTF-8"?>
<svg id="Layer_1" data-name="Layer 1" xmlns="http://www.w3.org/2000/svg" viewBox="0 0 108 108">
  <defs>
    <style>
      .cls-1 {
        fill: #fff;
      }

      .cls-2 {
        fill: #0d9f56;
      }
    </style>
  </defs>
  <circle class="cls-2" cx="54" cy="54" r="53.44"/>
  <path class="cls-1" d="M47.02,19.3c-1.48.31-2.75,1.16-4.01,1.95-1.93-1.69-3.67-3.67-5.91-4.97-2.08-.83-4.04.6-6.02,1.07-1.87-.65-3.77-1.4-5.79-1.34-1.26.49-2.48,1.39-2.99,2.67-.61,1.82.49,3.57.69,5.35-.85.79-1.83,1.42-2.58,2.29-.47,1.44-.8,3.04-.28,4.5,1.29,4.45,4.2,8.12,6.53,12.04,1.76,2.75,3.74,5.35,5.44,8.13-.69,1.31-1.5,2.69-1.3,4.22.26,1.88.84,3.69,1.09,5.57.38,2.27.38,4.76,1.79,6.7,1.65,2.32,3.99,4.01,5.89,6.11,2.4,2.42,4.29,5.51,7.48,7.01,5.15,2.48,10.01,5.52,15.32,7.67,1.78.54,1.94,2.65,2.71,4.06.61,1.1,1.18,2.97,2.77,2.63l23.93-16.29c.1-1.43.13-2.88-.29-4.28-1.04-3.85-2.16-7.73-4.18-11.2-3.4-6-7.13-11.82-11.16-17.42-2.03-2.88-4.86-5.04-7.37-7.48-5.5-5.28-9.79-11.77-15.81-16.53-1.71-1.31-3.7-2.65-5.95-2.47ZM52.25,24.96c6.46,5.64,11.15,13.01,17.78,18.47,2.69,2.18,4.45,5.19,6.3,8.04,3.82,5.54,7.79,11.07,10.36,17.33,1.15,2.74,1.64,5.67,2.42,8.52l-21.15,14.22h0c-.28-1.37-.88-2.7-1.51-3.94-.97-1.95-3.38-2.11-5.15-2.94-3.52-1.59-6.92-3.45-10.31-5.3-1.67-.79-1.6-2.9-2.46-4.32-3.02-5.65-5.92-11.36-8.85-17.06-3-5.61-6.7-10.78-10.04-16.18-2.64-3.81-5.32-7.73-6.58-12.24-.39-.99.36-1.87.71-2.74,1.57.7,2.71,2,3.61,3.43,4.89,7.3,10.25,14.26,15.21,21.5,1.2,1.37,2.8-.66,2-1.91-2.17-4.48-5.71-8.07-8.53-12.14-2.73-3.88-5.51-7.75-7.98-11.81-1.34-2.13-3.37-4.35-2.51-7.07,1.16.25,2.56.14,3.38,1.15,3.86,4.02,7.26,8.45,10.93,12.64,3.14,3.58,5.55,7.7,8.48,11.43.78,1.26,2.27,1.45,3.61,1.63-.03-.49-.08-1.48-.11-1.98-4.23-5.66-8.23-11.51-12.95-16.78-1.96-2.5-4.7-4.56-5.58-7.75,1.58.16,3.41.06,4.59,1.34,4.46,4.04,8.98,8.05,12.86,12.67,2.89,3.84,5.76,7.84,9.74,10.65.94.74,2.17.82,3.29,1.1-.67-3.42-4.02-5-6.03-7.53-2.25-2.78-4.5-5.57-6.63-8.46-1.62-2.29-3.91-4.2-4.71-6.99,2.2.39,4.17,1.53,5.81,2.99Z"/>
</svg>